# xmcd
#
# Track frame offsets: 
#        150
#        25627
#        40077
#        61660
#        77080
#        96170
#        121752
#        138550
#        157842
#        172037
#        190015
#        209667
#
# Disc length: 3019 seconds
#
# Revision: 1
# Processed by: cddbd v1.5.2PL0 Copyright (c) Steve Scherf et al.
# Submitted via: ExactAudioCopy v0.99pb5
#
DISCID=940bc90c
DTITLE=Jerry Jeff Walker - The Best Of Jerry Jeff Walker: 20th Century
DTITLE=Masters The Millennium Collection
DYEAR=2002
DGENRE=Country
TTITLE0=Mr.Bojangles (Live)
TTITLE1=Old Five And Dimers Like Me
TTITLE2=L. A. Freeway
TTITLE3=Hairy Ass Hillbillies
TTITLE4=Gettin' By
TTITLE5=Despeardoes Waiting For A Train
TTITLE6=Sangria Wine
TTITLE7=Up Against The Wall Redneck Mother
TTITLE8=Pot Can't Call The Kettle Black
TTITLE9=Pissin' In The Wind
TTITLE10=Leavin' Texas
TTITLE11=Railroad Lady
EXTD=Jerry Jeff Walker\nMCA
EXTT0=Jerry Jeff Walker
EXTT1=Jerry Jeff Walker
EXTT2=Jerry Jeff Walker
EXTT3=Jerry Jeff Walker
EXTT4=Jerry Jeff Walker
EXTT5=Jerry Jeff Walker
EXTT6=Jerry Jeff Walker
EXTT7=Jerry Jeff Walker
EXTT8=Jerry Jeff Walker
EXTT9=Jerry Jeff Walker
EXTT10=Jerry Jeff Walker
EXTT11=Jerry Jeff Walker
PLAYORDER=
